<?xml version="1.0" encoding="UTF-8"?>
<svg width="101px" height="97px" viewBox="0 0 101 97" version="1.1" xmlns="http://www.w3.org/2000/svg" xmlns:xlink="http://www.w3.org/1999/xlink">
    <title>03-money</title>
    <g id="Page-1" stroke="none" stroke-width="1" fill="none" fill-rule="evenodd">
        <g id="About" transform="translate(-1441.000000, -1193.000000)" fill="#6F4D86" fill-rule="nonzero">
            <g id="03-money" transform="translate(1441.000000, 1193.000000)">
                <g id="Group" transform="translate(0.000339, 0.000000)">
                    <path d="M24.9156614,87.429 C24.9156614,87.429 25.6806614,87.748 26.9776614,88.256 L28.3096614,87.699 C26.4836614,86.996 25.3516614,86.526 25.3016614,86.506 C24.9996614,86.38 24.6516614,86.41 24.3756614,86.587 L16.8526614,91.42 C16.3876614,91.719 16.2526614,92.338 16.5506614,92.802 C16.8496614,93.266 17.4676614,93.402 17.9326614,93.104 L22.6866614,90.05 L17.3926614,92.262 L24.9156614,87.429 Z" id="Path"></path>
                    <path d="M100.245661,62.37 C99.8256614,59.548 97.8236614,57.046 95.1466614,55.997 C92.3826614,54.914 89.3856614,55.501 86.7606614,57.608 L70.2606614,69.108 C69.8686614,69.381 69.7526614,69.881 69.9286614,70.306 L70.8326614,69.928 L87.3326614,58.428 C95.3326614,52.008 103.583661,62.991 96.8326614,68.324 C88.4646614,74.938 66.3336614,93.929 56.9996614,95.429 C49.3696614,96.656 32.7816614,90.533 26.9776614,88.256 L25.6546614,88.81 C30.0026614,90.556 45.6756614,96.588 54.7686614,96.587 C55.6286614,96.587 56.4316614,96.533 57.1586614,96.416 C65.3946614,95.093 82.6786614,81.071 93.0046614,72.694 C94.7256614,71.298 96.2356614,70.072 97.4546614,69.109 C99.6106614,67.405 100.628661,64.948 100.245661,62.37 Z" id="Path"></path>
                    <path d="M56.9996614,95.429 C66.3336614,93.929 88.4646614,74.938 96.8336614,68.325 C103.584661,62.991 95.3336614,52.009 87.3336614,58.429 L70.8336614,69.929 L69.9296614,70.307 C69.9566614,70.372 69.9716614,70.441 70.0136614,70.501 C70.3286614,70.953 70.9516614,71.064 71.4066614,70.749 L87.9606614,59.209 C90.0576614,57.527 92.3526614,57.051 94.4186614,57.858 C96.4096614,58.639 97.9566614,60.57 98.2686614,62.664 C98.5476614,64.542 97.8186614,66.273 96.2146614,67.541 C94.9906614,68.508 93.4736614,69.738 91.7446614,71.141 C82.2396614,78.852 64.5496614,93.203 56.8416614,94.441 C49.8666614,95.568 34.7526614,90.179 28.3096614,87.699 L26.9776614,88.256 C32.7816614,90.533 49.3696614,96.655 56.9996614,95.429 Z" id="Path"></path>
                    <path d="M24.9156614,87.429 L17.3926614,92.262 L22.6866614,90.05 L25.0176614,88.552 C25.1886614,88.621 25.4066614,88.71 25.6546614,88.81 L26.9776614,88.256 C25.6806614,87.748 24.9156614,87.429 24.9156614,87.429 Z" id="Path"></path>
                    <path d="M33.9796614,32.724 C33.9796614,44.453 43.5216614,53.995 55.2506614,53.995 C66.9796614,53.995 76.5206614,44.453 76.5206614,32.724 C76.5206614,20.995 66.9796614,11.454 55.2506614,11.454 C43.5216614,11.454 33.9796614,20.995 33.9796614,32.724 Z M75.5206614,32.724 C75.5206614,43.919 66.4456614,52.995 55.2506614,52.995 C44.0556614,52.995 34.9796614,43.92 34.9796614,32.724 C34.9796614,21.53 44.0546614,12.454 55.2506614,12.454 C66.4446614,12.454 75.5206614,21.529 75.5206614,32.724 Z" id="Shape"></path>
                    <path d="M34.9796614,32.724 C34.9796614,43.919 44.0546614,52.995 55.2506614,52.995 C66.4446614,52.995 75.5206614,43.92 75.5206614,32.724 C75.5206614,21.53 66.4456614,12.454 55.2506614,12.454 C44.0556614,12.454 34.9796614,21.529 34.9796614,32.724 Z M74.5206614,32.724 C74.5206614,43.35 65.8756614,51.995 55.2506614,51.995 C44.6246614,51.995 35.9796614,43.35 35.9796614,32.724 C35.9796614,22.099 44.6246614,13.454 55.2506614,13.454 C65.8756614,13.454 74.5206614,22.099 74.5206614,32.724 Z" id="Shape"></path>
                    <path d="M56.2776614,44.695 L53.6076614,44.695 C53.0546614,44.695 52.6076614,44.248 52.6076614,43.695 L52.6076614,42.03 C51.0346614,41.848 49.5116614,41.401 48.4766614,40.802 C48.0886614,40.578 47.8976614,40.122 48.0086614,39.689 L48.8256614,36.501 C48.9026614,36.201 49.1126614,35.954 49.3966614,35.832 C49.6796614,35.708 50.0036614,35.724 50.2746614,35.872 C51.0076614,36.274 52.5076614,36.948 54.3156614,36.948 C54.9156614,36.948 55.9296614,36.802 55.9296614,36.259 C55.9296614,36.057 55.9296614,35.582 53.7226614,34.837 C51.3266614,34.031 48.1396614,32.539 48.1396614,28.905 C48.1396614,26.21 49.8816614,24.108 52.7436614,23.271 L52.7436614,21.469 C52.7436614,20.916 53.1906614,20.469 53.7436614,20.469 L56.4126614,20.469 C56.9656614,20.469 57.4126614,20.916 57.4126614,21.469 L57.4126614,22.939 C58.6936614,23.08 59.8086614,23.384 60.7986614,23.865 C61.2266614,24.072 61.4486614,24.553 61.3306614,25.013 L60.5406614,28.091 C60.4686614,28.372 60.2756614,28.61 60.0156614,28.738 C59.7536614,28.865 59.4506614,28.876 59.1826614,28.762 L58.9756614,28.673 C58.2816614,28.371 57.2326614,27.915 55.6506614,27.915 C55.3366614,27.915 54.3086614,27.953 54.3086614,28.44 C54.3086614,28.597 54.6496614,28.988 56.9286614,29.846 C60.5166614,31.113 62.1246614,32.974 62.1246614,35.875 C62.1246614,38.682 60.2496614,40.904 57.2766614,41.715 L57.2766614,43.692 C57.2776614,44.248 56.8306614,44.695 56.2776614,44.695 Z M54.6076614,42.695 L55.2776614,42.695 L55.2776614,40.918 C55.2776614,40.432 55.6276614,40.016 56.1056614,39.933 C58.5846614,39.501 60.1256614,37.949 60.1256614,35.879 C60.1256614,34.162 59.4766614,32.869 56.2436614,31.729 C54.0066614,30.886 52.3086614,30.115 52.3086614,28.444 C52.3086614,27.223 53.1866614,25.919 55.6506614,25.919 C57.0376614,25.919 58.1016614,26.197 58.8896614,26.483 L59.1776614,25.357 C58.3656614,25.077 57.4396614,24.915 56.3676614,24.867 C55.8336614,24.843 55.4126614,24.403 55.4126614,23.868 L55.4126614,22.472 L54.7436614,22.472 L54.7436614,24.059 C54.7436614,24.537 54.4056614,24.948 53.9356614,25.04 C51.5586614,25.507 50.1396614,26.952 50.1396614,28.907 C50.1396614,30.765 51.3636614,31.935 54.3616614,32.943 C56.2156614,33.569 57.9296614,34.404 57.9296614,36.26 C57.9296614,37.894 56.5106614,38.949 54.3156614,38.949 C52.7886614,38.949 51.4486614,38.569 50.4616614,38.17 L50.1486614,39.395 C51.1116614,39.785 52.4046614,40.054 53.6516614,40.11 C54.1856614,40.134 54.6066614,40.574 54.6066614,41.109 L54.6066614,42.695 L54.6076614,42.695 Z" id="Shape"></path>
                    <path d="M55.2506614,2 C72.1916614,2 85.9746614,15.782 85.9746614,32.724 C85.9746614,33.604 85.9576614,44.58 85.9426614,45.042 C85.9216614,45.594 86.3496614,46.059 86.9016614,46.08 C86.9156614,46.081 86.9286614,46.081 86.9426614,46.081 C87.4756614,46.081 87.9196614,45.659 87.9406614,45.121 C87.9606614,44.643 87.9746614,32.839 87.9746614,32.724 C87.9746614,14.68 73.2946614,0 55.2506614,0 C37.7686614,0 23.4426614,13.78 22.5676614,31.049 L24.5736614,31.049 C25.4456614,14.884 38.8716614,2 55.2506614,2 Z" id="Path"></path>
                    <path d="M22.6256614,45.515 C22.7926614,45.861 23.1426614,46.081 23.5266614,46.081 C23.9106614,46.081 24.2606614,45.86 24.4276614,45.515 L30.6946614,32.483 C30.8426614,32.172 30.8226614,31.808 30.6396614,31.517 C30.4556614,31.226 30.1366614,31.049 29.7926614,31.049 L24.5726614,31.049 C24.5536614,31.38 24.5496614,31.715 24.5416614,32.049 L29.7926614,32.049 L23.5256614,45.081 L17.2596614,32.049 L22.5436614,32.049 C22.5506614,31.715 22.5516614,31.38 22.5676614,31.049 L17.2596614,31.049 C16.9156614,31.049 16.5966614,31.226 16.4126614,31.517 C16.2296614,31.808 16.2096614,32.173 16.3576614,32.483 L22.6256614,45.515 Z" id="Path"></path>
                    <path d="M24.5426614,32.049 C24.5506614,31.715 24.5556614,31.38 24.5736614,31.049 L22.5676614,31.049 C22.5506614,31.38 22.5496614,31.715 22.5436614,32.049 L24.5426614,32.049 Z" id="Path"></path>
                    <path d="M24.5346614,33.049 L28.2026614,33.049 L23.5266614,42.774 L18.8496614,33.049 L22.5346614,33.049 C22.5326614,32.941 22.5256614,32.833 22.5256614,32.724 C22.5256614,32.497 22.5386614,32.275 22.5436614,32.049 L17.2596614,32.049 L23.5276614,45.081 L29.7946614,32.049 L24.5436614,32.049 C24.5396614,32.275 24.5266614,32.497 24.5266614,32.724 C24.5256614,32.832 24.5326614,32.94 24.5346614,33.049 Z" id="Path"></path>
                    <path d="M22.5256614,32.724 C22.5256614,32.833 22.5326614,32.941 22.5346614,33.049 L24.5346614,33.049 C24.5326614,32.941 24.5256614,32.832 24.5256614,32.724 C24.5256614,32.497 24.5386614,32.275 24.5426614,32.049 L22.5436614,32.049 C22.5386614,32.274 22.5256614,32.497 22.5256614,32.724 Z" id="Path"></path>
                    <path d="M18.4996614,57.929 C18.4996614,57.929 23.2496614,55.679 28.4996614,57.929 C33.7496614,60.179 53.7356614,65.987 60.1456614,67.002 C63.2276614,67.49 65.0546614,69.684 65.6036614,72.114 L66.5296614,71.727 C66.4716614,71.496 66.4196614,71.264 66.3406614,71.037 C65.3976614,68.304 63.1966614,66.473 60.3026614,66.015 C53.8306614,64.99 33.8986614,59.155 28.8936614,57.01 C23.2956614,54.611 18.2816614,56.926 18.0726614,57.026 C18.0246614,57.048 17.9786614,57.075 17.9346614,57.104 L0.43466137,69.104 C-0.0213386301,69.417 -0.13633863,70.04 0.17466137,70.495 C0.48766137,70.951 1.10966137,71.066 1.56566137,70.755 L2.50566137,70.109 L0.99966137,69.929 L18.4996614,57.929 Z" id="Path"></path>
                    <path d="M38.6656614,74.429 L37.6906614,74.313 C37.6336614,74.797 37.9206614,75.265 38.4066614,75.395 L50.1956614,78.554 L51.7056614,77.922 L38.6656614,74.429 Z" id="Path"></path>
                    <path d="M59.7056614,80.723 C62.4776614,80.723 64.1226614,79.49 64.9436614,78.606 C66.5696614,76.859 67.1516614,74.223 66.5296614,71.728 L65.6036614,72.115 C66.5426614,76.274 63.7326614,81.13 56.9996614,79.342 L51.7046614,77.923 L50.1946614,78.555 L56.7426614,80.309 C57.8496614,80.601 58.8336614,80.723 59.7056614,80.723 Z" id="Path"></path>
                    <path d="M28.1056614,58.848 C33.3196614,61.082 53.2546614,66.923 59.9896614,67.99 C62.1296614,68.33 63.7556614,69.678 64.4496614,71.69 C64.5426614,71.96 64.6126614,72.232 64.6676614,72.506 L65.6046614,72.114 C65.0556614,69.683 63.2286614,67.49 60.1466614,67.002 C53.7366614,65.986 33.7506614,60.179 28.5006614,57.929 C23.2506614,55.679 18.5006614,57.929 18.5006614,57.929 L1.00066137,69.929 L2.50666137,70.109 L18.9896614,58.806 C19.5476614,58.567 23.6676614,56.947 28.1056614,58.848 Z" id="Path"></path>
                    <path d="M51.7056614,77.922 L53.2156614,77.291 L38.9246614,73.463 C38.3916614,73.322 37.8426614,73.637 37.6996614,74.17 C37.6866614,74.218 37.6966614,74.265 37.6906614,74.313 L38.6656614,74.429 L51.7056614,77.922 Z" id="Path"></path>
                    <path d="M63.4786614,77.244 C62.1396614,78.684 59.9296614,79.083 57.2586614,78.375 L53.2146614,77.291 L51.7046614,77.922 L56.9996614,79.341 C63.7316614,81.129 66.5426614,76.274 65.6036614,72.114 L64.6666614,72.506 C65.0166614,74.261 64.5856614,76.054 63.4786614,77.244 Z" id="Path"></path>
                </g>
            </g>
        </g>
    </g>
</svg>