<?xml version="1.0" encoding="UTF-8"?>
<svg width="118px" height="126px" viewBox="0 0 118 126" version="1.1" xmlns="http://www.w3.org/2000/svg" xmlns:xlink="http://www.w3.org/1999/xlink">
    <title>flag1</title>
    <g id="Page-1" stroke="none" stroke-width="1" fill="none" fill-rule="evenodd">
        <g id="About" transform="translate(-375.000000, -1172.000000)" fill="#7F6193" fill-rule="nonzero">
            <g id="flag1" transform="translate(375.000000, 1172.000000)">
                <path d="M89.8748743,79 L4.1251257,79 C3.50373593,79 3,78.4953125 3,77.8727489 L3,16.1272511 C3,15.5046875 3.50373593,15 4.1251257,15 L89.8748743,15 C90.4962641,15 91,15.5046875 91,16.1272511 L91,77.8727489 C91,78.4953125 90.4962641,79 89.8748743,79 Z M5.2502514,76.732832 L88.7497486,76.732832 L88.7497486,17.2038393 L5.2502514,17.2038393 L5.2502514,76.732832 Z" id="Shape"></path>
                <path d="M115.341815,88.9874175 L56.1179062,88.9874175 C55.5005037,88.9874175 55,88.4860466 55,87.8675743 L55,77.4115099 C55,76.7930376 55.5005037,76.2916667 56.1179062,76.2916667 C56.7353088,76.2916667 57.2358125,76.7930376 57.2358125,77.4115099 L57.2358125,86.747731 L115.341815,86.747731 C115.495808,86.745884 115.636085,86.6586649 115.706076,86.5212459 C115.787958,86.3904388 115.787958,86.2242476 115.706076,86.0934406 L100.005146,60.9284241 C99.0754482,59.4388695 99.0754482,57.548548 100.005146,56.0589934 L115.706076,30.8939769 C115.787958,30.7631699 115.787958,30.5969787 115.706076,30.4661716 C115.636085,30.3287526 115.495808,30.2415334 115.341815,30.2396865 L90.0947191,30.2396865 C89.4773165,30.2396865 88.9768129,29.7383156 88.9768129,29.1198432 C88.9768129,28.5013709 89.4773165,28 90.0947191,28 L115.341815,28 C116.310697,28.0017109 117.202194,28.5304477 117.669619,29.3805936 C118.137043,30.2307395 118.106623,31.2681201 117.590188,32.0893152 L101.889258,57.2920792 C101.406892,58.0613271 101.406892,59.0393329 101.889258,59.8085809 L117.590188,84.9106848 C118.106623,85.7318799 118.137043,86.7692605 117.669619,87.6194064 C117.202194,88.4695523 116.310697,88.9982891 115.341815,89 L115.341815,88.9874175 Z" id="Path"></path>
                <path d="M56.1123974,88.9999652 C55.8725469,89.0019335 55.6390975,88.9202766 55.4500405,88.7682473 C55.167221,88.5548933 55.0000674,88.2154516 55.0000674,87.8543909 L55.0000674,77.1584095 C54.9967988,76.8523699 55.1125072,76.5576802 55.3214594,76.3400582 C55.5304116,76.1224362 55.8152297,76 56.1123974,76 L89.9175945,76 C90.4585088,76.0210338 90.9081551,76.4359044 90.9877036,76.9873468 C91.0672521,77.5387893 90.7541372,78.070375 90.2425243,78.252463 L56.4998137,88.9484443 C56.373226,88.9819701 56.2431019,88.9992627 56.1123974,88.9999652 L56.1123974,88.9999652 Z M57.2246572,78.3039478 L57.2246572,86.2969736 L82.5066955,78.3039478 L57.2246572,78.3039478 Z" id="Shape"></path>
                <path d="M10.0256567,126 L7.94155331,126 C5.21751942,126 3.00722555,123.886986 3,121.275997 L3,16.1181657 C3,15.5006198 3.52229279,15 4.16657359,15 L13.7088834,15 C14.3531642,15 14.875457,15.5006199 14.875457,16.1181657 C14.875457,16.7357116 14.3531642,17.2363314 13.7088834,17.2363314 L5.33314719,17.2363314 L5.33314719,121.275997 C5.33314719,122.663741 6.50683884,123.788729 7.95466088,123.788729 L10.0256567,123.788729 C11.4734787,123.788729 12.6471704,122.663741 12.6471704,121.275997 L12.6471704,77.3660066 C12.5996723,76.9359001 12.8123068,76.5175028 13.1949158,76.2882175 C13.5775248,76.0589322 14.0630708,76.0589322 14.4456797,76.2882175 C14.8282887,76.5175028 15.0409232,76.9359001 14.9934251,77.3660066 L14.9934251,121.275997 C14.9899612,122.534382 14.4642022,123.73972 13.5321831,124.625993 C12.6001641,125.512266 11.3385059,126.006613 10.0256567,126 L10.0256567,126 Z" id="Path"></path>
                <path d="M4.54360452,17 C4.32367349,17.0013702 4.10838245,16.9352941 3.92551915,16.8102786 C0.665594436,14.5331912 -0.763371015,10.3485621 0.401381041,6.49007747 C1.5661331,2.6315928 5.05269606,0 9,0 C12.9473039,0 16.4338669,2.6315928 17.598619,6.49007747 C18.763371,10.3485621 17.3344056,14.5331912 14.0744808,16.8102786 C13.5738089,17.1233968 12.9210506,16.9794026 12.5909906,16.4830304 C12.2609307,15.9866581 12.369755,15.3126381 12.8383101,14.9512197 C15.2989528,13.2294332 16.3762137,10.0685529 15.4953926,7.15485411 C14.6145715,4.24115536 11.9811446,2.25434003 9,2.25434003 C6.01885538,2.25434003 3.38542848,4.24115536 2.5046074,7.15485411 C1.62378631,10.0685529 2.70104721,13.2294332 5.16168988,14.9512197 C5.55419811,15.2312191 5.72479426,15.7386615 5.58367544,16.206426 C5.44255662,16.6741906 5.02208704,16.9950001 4.54360452,17 Z" id="Path"></path>
                <path d="M47.012842,69 C38.1136647,69.0050578 30.0879413,63.6482213 26.6788635,55.427908 C23.2697856,47.2075947 25.1488929,37.7430889 31.439771,31.4486291 C37.7306491,25.1541694 47.194085,23.2696744 55.416339,26.6740713 C63.638593,30.0784682 69,38.1011394 69,47.0003169 C68.9862149,59.1398012 59.1523183,68.9792966 47.012842,69 L47.012842,69 Z M47.012842,27.2419243 C39.0139777,27.2368641 31.800152,32.0520346 28.7367793,39.4410526 C25.6734067,46.8300707 27.3641261,55.3369269 33.0201784,60.9929784 C38.6762308,66.6490299 47.1830882,68.3397491 54.5721073,65.2763769 C61.9611264,62.2130047 66.7762976,54.99918 66.7712374,47.0003169 C66.7643265,36.0909224 57.9222381,27.2488352 47.012842,27.2419243 Z" id="Shape"></path>
                <path d="M46.5048201,39.9967886 C40.3174301,40.0935915 34.284874,37.9993535 29.4131785,34.0633226 C28.9314313,33.656403 28.8606826,32.9236753 29.2551567,32.4267293 C29.6496309,31.9297833 30.3599487,31.8568024 30.8416959,32.2637219 C35.3128509,35.8645401 40.845875,37.7747405 46.5174618,37.6755645 C52.1890486,37.7747405 57.7220727,35.8645401 62.1932277,32.2637219 C62.4234055,32.0670948 62.7205964,31.9742704 63.0178499,32.0061601 C63.3151033,32.0380498 63.5874175,32.1919713 63.7734461,32.4332495 C63.9538165,32.6801677 64.0312269,32.9911173 63.9885084,33.2971327 C63.9457899,33.6031481 63.7864737,33.8789336 63.5458946,34.0633226 C58.6892362,37.9908626 52.6754189,40.0847904 46.5048201,39.9967886 L46.5048201,39.9967886 Z" id="Path"></path>
                <path d="M30.1273568,60.9599067 C29.787959,60.9630499 29.4661802,60.8049611 29.2555247,60.5315789 C29.0650093,60.2952489 28.9750702,59.9901148 29.0059686,59.6849164 C29.0368671,59.3797181 29.1860043,59.1001256 29.4197829,58.9091249 C34.2923616,54.9886732 40.3267486,52.9040604 46.5152721,53.0033925 C52.6783817,52.9187762 58.6841778,55.0027537 63.5349498,58.9091249 C63.8723387,59.1600764 64.0470518,59.5820526 63.9890022,60.0057761 C63.9309527,60.4294997 63.649651,60.7855506 63.2579424,60.9310976 C62.8662338,61.0766446 62.4282932,60.9878423 62.1198022,60.7003141 C57.6539027,57.1106756 52.1217168,55.2087137 46.4520959,55.313767 C40.782475,55.2087137 35.2502891,57.1106756 30.7843896,60.7003141 C30.5959472,60.8530613 30.3668722,60.9435685 30.1273568,60.9599067 L30.1273568,60.9599067 Z" id="Path"></path>
                <path d="M47.1021678,68.9994789 C46.6940957,68.9967106 46.3205918,68.7658083 46.1301629,68.3985799 C45.9920364,68.1384802 45.9624544,67.8328083 46.0480682,67.5502928 C46.1336821,67.2677772 46.3273063,67.0321292 46.5854057,66.8963326 C52.7373355,63.5287949 56.809913,55.7171089 56.809913,47.0040746 C56.809913,38.2910402 52.7865509,30.4793542 46.5731019,27.0617416 C46.0833955,26.7533368 45.912172,26.1116857 46.1813419,25.5936414 C46.4505118,25.0755971 47.0680721,24.8582286 47.5943222,25.0963014 C54.5213951,28.8519196 59,37.427248 59,46.9539997 C59,56.4807513 54.533699,65.1061546 47.6804492,68.8617728 C47.5027557,68.9581074 47.303423,69.0055745 47.1021678,68.9994789 L47.1021678,68.9994789 Z" id="Path"></path>
                <path d="M47.6251504,69 C47.4334564,68.9971992 47.245318,68.9500755 47.0767985,68.8626523 C39.7393274,65.116805 35,56.5637871 35,47.0618212 C35,37.5598553 39.7393274,28.9943512 47.0898545,25.2609901 C47.4496926,24.971415 47.9565621,24.917823 48.3738526,25.1252312 C48.791143,25.3326395 49.0365647,25.7601471 48.995553,26.2081902 C48.9545412,26.6562333 48.6351834,27.0364579 48.1865584,27.1713722 C41.5802232,30.5301486 37.3239677,38.3215109 37.3239677,47.0118765 C37.3239677,55.7022422 41.5802232,63.4936045 48.1735024,66.8523809 C48.6291787,67.1026653 48.8556992,67.6118624 48.7282511,68.0994045 C48.600803,68.5869466 48.1503739,68.9342928 47.6251504,68.9500554 L47.6251504,69 Z" id="Path"></path>
                <path d="M67.8852832,48 L26.1147168,48 C25.4990757,48 25,47.5522847 25,47 C25,46.4477153 25.4990757,46 26.1147168,46 L67.8852832,46 C68.5009243,46 69,46.4477153 69,47 C69,47.5522847 68.5009243,48 67.8852832,48 Z" id="Path"></path>
                <path d="M67.8852832,48 L26.1147168,48 C25.4990757,48 25,47.5522847 25,47 C25,46.4477153 25.4990757,46 26.1147168,46 L67.8852832,46 C68.5009243,46 69,46.4477153 69,47 C69,47.5522847 68.5009243,48 67.8852832,48 Z" id="Path"></path>
                <path d="M47,69 C46.4477153,69 46,68.5009243 46,67.8852832 L46,26.1147168 C46,25.4990757 46.4477153,25 47,25 C47.5522847,25 48,25.4990757 48,26.1147168 L48,67.8852832 C48,68.5009243 47.5522847,69 47,69 L47,69 Z" id="Path"></path>
            </g>
        </g>
    </g>
</svg>