<?xml version="1.0" encoding="UTF-8"?>
<svg width="176px" height="48px" viewBox="0 0 176 48" version="1.1" xmlns="http://www.w3.org/2000/svg" xmlns:xlink="http://www.w3.org/1999/xlink">
    <title>JonathanHill</title>
    <g id="Page-1" stroke="none" stroke-width="1" fill="none" fill-rule="evenodd">
        <g id="About" transform="translate(-200.000000, -845.000000)" fill="#654E8F" fill-rule="nonzero">
            <path d="M219.312,892.322 L219.27,892.322 C219.984,891.944 220.446,891.314 220.866,890.684 C221.244,890.138 221.664,889.172 221.916,888.584 C222.504,887.198 222.966,885.728 223.386,884.342 C224.52,879.764 225.192,874.598 225.318,869.642 L225.948,869.432 C226.074,869.432 226.116,869.39 226.158,869.39 C226.62,869.222 227.082,869.096 227.502,869.012 L228.594,868.802 L229.476,868.676 C231.366,868.466 231.366,868.214 231.366,868.214 C231.366,868.214 231.366,867.962 229.476,868.088 C229.476,868.088 229.098,868.13 228.51,868.214 L227.88,868.34 L227.418,868.424 L226.704,868.592 L226.032,868.76 L225.738,868.844 C225.612,868.928 225.444,868.97 225.318,869.012 L225.318,868.256 C225.318,868.004 225.36,867.71 225.36,867.374 C225.36,867.08 225.318,866.744 225.318,866.45 L225.318,865.526 C225.192,862.292 224.814,859.058 223.974,855.908 C223.47,854.396 222.882,852.8 222.084,851.414 C221.202,849.986 219.984,848.726 218.262,848.138 C217.38,847.844 216.456,847.718 215.616,847.718 C213.264,847.718 210.87,848.642 209.064,849.944 C206.586,851.834 204.738,854.354 203.436,856.832 C202.218,859.268 201.336,862.166 201,864.686 C200.916,865.316 200.874,866.114 200.874,866.744 C200.874,868.676 201.168,870.398 201.924,871.994 C202.764,873.758 203.814,874.136 203.982,873.884 C204.15,873.716 203.982,873.296 203.646,872.498 C203.478,872.288 203.268,871.826 203.184,871.616 C203.184,871.574 203.142,871.532 203.142,871.49 C202.47,870.188 202.176,868.508 202.176,866.828 C202.176,866.156 202.218,865.484 202.302,864.812 C202.554,862.334 203.352,859.814 204.612,857.336 C205.83,854.942 207.552,852.59 209.862,850.91 C211.038,850.112 212.256,849.524 213.684,849.146 C214.314,848.978 214.944,848.936 215.574,848.936 C216.288,848.936 217.128,849.02 217.884,849.272 C219.144,849.734 220.278,850.868 221.076,852.086 C221.79,853.346 222.462,854.984 222.882,856.202 C223.596,859.1 224.1,862.67 224.226,865.568 C224.268,866.45 224.31,868.466 224.31,869.348 C223.596,869.6 222.798,869.978 222.126,870.314 C220.698,871.07 219.186,872.204 217.842,873.674 C215.784,876.278 213.768,880.562 213.768,884.888 C213.768,885.602 213.81,886.274 213.894,886.988 C214.062,888.374 214.44,889.844 215.196,891.02 C215.574,891.566 216.204,892.196 216.876,892.574 C217.548,892.868 218.682,892.868 219.312,892.322 Z M217.17,891.776 C216.666,891.524 216.246,891.02 215.91,890.516 C215.238,889.34 214.86,888.038 214.692,886.904 C214.608,886.232 214.524,885.392 214.524,884.72 C214.524,880.478 216.162,876.614 218.346,874.178 C219.648,872.666 221.076,871.574 222.378,870.86 C223.008,870.524 223.722,870.23 224.268,869.978 C224.142,874.682 223.554,879.68 222.462,884.09 C222.084,885.56 221.622,886.946 221.118,888.29 C220.53,889.466 219.774,890.936 218.766,891.65 C218.346,891.986 217.716,892.028 217.17,891.776 Z M234.12,874.598 C234.876,874.262 235.38,873.674 235.716,873.002 C236.346,871.91 236.43,870.65 236.43,869.642 C236.43,868.718 236.22,867.374 235.632,866.24 C235.296,865.61 234.624,865.022 233.91,864.77 C233.238,864.476 232.44,864.476 231.642,864.854 C230.844,865.274 230.508,866.282 230.466,867.038 C230.298,867.416 229.962,868.046 229.92,868.34 C229.71,868.97 229.626,869.684 229.668,870.482 C229.752,871.994 230.298,873.548 231.558,874.346 C232.398,874.766 233.364,874.892 234.12,874.598 Z M232.272,873.674 C231.18,872.96 230.676,871.658 230.592,870.44 C230.592,869.936 230.676,869.264 230.802,868.802 L231.012,869.222 C231.642,870.608 233.07,871.7 234.456,871.826 C234.834,871.868 235.002,871.616 235.002,871.364 C235.002,871.154 234.876,870.818 234.54,870.818 C233.574,870.692 232.482,869.852 231.81,868.592 C231.684,868.382 231.516,867.962 231.432,867.626 L231.768,867.206 C232.02,866.912 231.894,866.702 231.768,866.492 L231.474,866.324 C231.6,866.114 231.81,865.778 232.062,865.61 C232.482,865.316 233.196,865.274 233.7,865.484 C234.204,865.652 234.624,866.114 234.918,866.618 C235.59,867.668 235.758,868.802 235.758,869.642 C235.758,870.566 235.632,871.658 235.086,872.666 L235.044,872.666 C234.75,873.17 234.33,873.674 233.868,873.842 C233.406,874.052 232.734,873.968 232.272,873.674 Z M240.318,874.346 C240.696,874.094 240.948,873.758 241.158,873.464 L241.41,873.17 L242.712,870.902 C242.796,870.692 242.964,870.482 243.048,870.272 L243.048,870.314 C243.3,869.894 243.51,869.432 243.804,869.012 C244.224,868.34 244.644,867.668 245.106,867.038 C245.61,866.408 246.114,865.778 246.702,865.526 C246.996,865.4 247.29,865.316 247.542,865.4 C247.752,865.442 248.046,865.694 248.256,865.904 C248.508,866.282 248.886,866.912 249.18,867.584 L249.39,867.92 C249.6,868.298 250.062,868.844 250.524,869.264 C251.028,869.726 251.658,870.02 252.246,870.02 C253.464,870.062 254.304,869.558 254.808,869.264 L255.564,868.76 C255.858,868.466 255.858,868.256 255.858,868.172 C255.858,868.172 255.564,868.004 255.186,868.298 L255.228,868.298 C255.228,868.298 254.934,868.466 254.472,868.718 C254.01,868.97 253.212,869.39 252.288,869.348 C251.91,869.348 251.406,869.096 251.07,868.718 C250.65,868.34 250.356,867.836 250.02,867.29 L249.642,866.534 L249.642,866.576 C249.348,866.072 249.138,865.694 248.844,865.316 C248.508,864.98 248.256,864.686 247.794,864.56 C247.29,864.434 246.828,864.518 246.366,864.686 C245.526,865.064 244.896,865.694 244.392,866.366 C243.846,867.038 243.468,867.584 243.174,868.004 L242.88,868.466 L242.88,868.424 L241.746,870.272 C241.62,870.44 241.536,870.692 241.452,870.86 C241.116,871.448 240.822,871.952 240.36,872.54 C240.234,872.75 240.024,873.002 239.814,873.17 L239.772,873.086 C239.604,872.456 239.562,871.742 239.562,871.112 C239.562,869.642 239.688,868.382 239.814,867.206 C239.898,866.366 238.638,866.324 238.512,867.122 C238.386,868.256 238.302,869.642 238.302,871.112 L238.302,871.448 C238.344,872.12 238.386,872.75 238.596,873.464 C238.68,873.716 238.806,873.968 239.1,874.22 C239.478,874.598 239.94,874.556 240.318,874.346 Z M269.994,877.16 C269.994,877.16 269.868,875.816 269.7,873.716 L269.7,873.212 C269.7,872.96 269.658,872.708 269.658,872.414 C269.574,870.482 269.49,868.256 269.49,865.862 C269.532,863.762 269.574,861.284 269.658,859.31 C270.876,859.268 272.01,859.226 273.228,859.226 L274.488,859.226 C276.42,859.226 278.226,859.31 279.486,859.478 C280.704,859.646 281.502,859.898 281.502,859.898 L281.544,859.898 C281.88,859.94 282.006,859.73 282.006,859.73 L281.992173,859.702115 C281.958296,859.640815 281.856667,859.492 281.628,859.394 C281.628,859.394 280.788,859.1 279.528,858.89 C278.268,858.68 276.462,858.512 274.488,858.428 C273.396,858.386 272.178,858.386 271.002,858.386 L269.7,858.386 L270.12,852.128 C270.204,851.498 269.826,851.288 269.826,851.288 C269.826,851.288 269.448,851.456 269.364,852.086 C269.28,853.01 269.07,855.362 268.944,858.386 C266.76,858.428 264.66,858.554 263.106,858.68 C263.064,858.68 263.064,858.764 263.106,858.764 C263.568,858.89 263.61,859.436 263.274,859.604 C263.232,859.604 263.232,859.688 263.274,859.688 C264.786,859.562 266.76,859.436 268.902,859.31 L268.902,859.646 L268.188,862.46 L268.062,862.838 C268.02,862.964 267.978,863.09 267.978,863.174 C267.6,864.308 267.096,865.862 266.424,867.206 C266.172,867.752 265.5,868.634 265.038,869.18 C264.828,869.306 264.324,869.474 264.072,869.474 C263.778,869.39 263.358,869.096 263.148,868.844 C262.56,868.214 262.056,867.29 261.594,866.324 L261.216,865.652 C261.132,865.568 260.964,865.4 260.712,865.358 C260.418,865.4 260.208,865.568 260.082,865.694 C259.83,865.988 259.536,866.576 259.326,866.912 L258.822,866.786 C257.394,866.576 255.378,867.164 254.244,868.844 C253.74,869.684 253.53,870.608 253.698,871.784 C253.782,872.33 254.286,872.96 254.958,873.086 C255.588,873.254 256.344,872.918 256.722,872.582 C257.436,871.952 258.024,871.07 258.486,870.314 L258.57,870.188 L259.998,867.458 C260.124,867.122 260.376,866.702 260.628,866.408 L260.88,866.828 C261.342,867.71 261.888,868.634 262.56,869.39 C262.896,869.726 263.4,870.104 263.988,870.23 C264.492,870.23 265.164,870.02 265.5,869.726 C266.172,869.138 266.718,868.172 267.054,867.458 C267.726,865.988 268.188,864.476 268.524,863.3 C268.566,863.048 268.65,862.754 268.734,862.502 C268.704,863.042 268.695429,864.182 268.69298,865.034245 L268.692,865.862 L268.692,865.862 C268.65,866.744 268.65,867.584 268.65,868.424 C268.65,869.768 268.692,871.364 268.734,872.54 C268.734,872.96 268.776,873.38 268.776,873.758 C268.944,875.858 269.028,877.244 269.028,877.244 C269.07,877.916 270.036,877.874 269.994,877.16 Z M255.168,872.162 L254.622,871.49 C254.622,870.944 254.832,869.978 255.126,869.474 C255.924,868.256 257.562,867.71 258.78,867.836 C258.528,868.382 258.192,869.012 257.772,869.684 L257.52,870.104 C257.058,870.776 256.638,871.448 256.092,871.868 C255.924,872.036 255.42,872.162 255.168,872.162 Z M273.714,875.186 C273.924,875.102 274.302,874.892 274.386,874.766 L275.058,873.926 L275.982,872.498 L276.234,872.078 L276.36,871.826 C276.402,871.742 276.57,871.364 276.57,871.448 C277.116,870.482 277.662,869.558 278.208,868.718 C278.88,867.71 279.594,866.702 280.602,866.072 C281.232,865.568 282.072,866.198 282.744,866.744 L282.912,866.87 L283.542,867.374 C284.088,867.836 284.718,868.382 285.222,868.718 C285.894,869.138 286.86,869.516 287.574,869.558 L288.12,869.558 L288.54,869.474 C288.834,869.474 289.044,869.39 289.212,869.306 C289.8,869.012 290.136,868.718 290.22,868.592 C290.346,868.424 290.22,868.13 290.22,868.13 C290.22,868.13 289.968,867.962 289.002,868.424 C288.96,868.424 288.918,868.466 288.876,868.466 L288.792,868.508 C288.666,868.55 288.54,868.592 288.456,868.592 L288.078,868.676 L287.616,868.676 C287.154,868.634 286.566,868.424 285.768,867.92 C285.18,867.542 284.802,867.206 284.382,866.828 L283.92,866.408 L283.584,866.114 L283.416,865.988 L283.038,865.694 C282.744,865.484 282.492,865.316 282.072,865.106 C281.82,864.98 281.442,864.896 281.148,864.938 C280.686,864.938 280.35,865.064 280.056,865.19 C278.838,865.904 278.082,866.996 277.368,868.088 C276.822,868.928 276.276,869.936 275.73,870.902 L275.268,871.616 L274.722,872.456 C274.596,872.624 274.344,873.002 274.218,873.254 L273.63,873.968 L273.462,874.136 C273.294,874.052 273.21,873.8 273.126,873.548 C273,873.17 272.916,872.792 272.874,872.54 C272.79,872.204 272.748,871.742 272.706,871.28 L272.622,870.566 C272.538,869.18 272.496,867.878 272.496,866.534 C272.496,862.502 272.832,858.68 273.084,855.698 C273.401333,851.929667 273.75613,849.472537 273.794572,849.211153 L273.798,849.188 L273.798,849.188 C273.924,847.886 272.664,847.802 272.496,849.062 L272.492947,849.085528 C272.458667,849.351074 272.141333,851.845667 271.824,855.614 C271.614,858.386 271.362,861.83 271.362,865.61 C271.362,867.164 271.404,869.012 271.53,870.608 C271.572,871.28 271.656,872.204 271.782,872.708 L272.034,873.8 L272.118,874.01 C272.244,874.346 272.412,874.682 272.706,874.976 C272.958,875.228 273.378,875.27 273.714,875.186 Z M304.482,874.388 C305.112,874.136 305.532,873.716 305.826,873.338 C306.33,872.666 306.75,871.952 307.17,871.154 L307.254,870.986 L307.254,871.028 L307.338,870.86 C307.38,870.734 307.548,870.524 307.59,870.398 L307.59,870.44 L307.926,869.852 C307.926,869.81 308.136,869.432 308.178,869.348 C308.724,868.256 309.354,867.122 310.068,866.282 C310.53,865.736 311.286,865.316 311.832,865.316 C312.378,865.484 312.798,866.198 313.134,866.702 L313.344,866.996 C313.428,867.164 313.47,867.29 313.554,867.374 L313.554,867.332 C313.848,867.836 314.142,868.424 314.436,868.76 C314.814,869.348 315.444,869.81 316.074,869.936 C316.704,870.104 317.334,869.978 317.838,869.852 C318.258,869.684 318.678,869.516 318.93,869.348 L318.888,869.348 C319.518,869.012 319.728,868.802 319.812,868.718 C320.19,868.424 320.148,868.13 320.148,868.13 C320.148,868.13 319.938,867.92 319.518,868.298 L319.56,868.298 L318.72,868.76 C318.174,869.054 317.208,869.474 316.284,869.306 C315.402,868.928 314.562,867.626 313.932,866.45 C313.806,866.198 313.47,865.61 313.26,865.358 C312.882,864.98 312.546,864.644 312.042,864.518 C310.908,864.266 310.026,865.022 309.354,865.652 C308.43,866.786 307.632,868.172 306.834,869.642 C306.708,869.894 306.498,870.146 306.372,870.356 C305.994,871.112 305.574,871.868 304.944,872.582 C304.734,872.834 304.356,873.17 304.23,873.296 C304.062,873.296 303.81,873.212 303.768,873.086 C303.432,872.456 303.39,871.532 303.39,870.734 C303.39,869.936 303.432,869.096 303.558,868.298 C303.726,866.828 304.02,865.274 304.272,864.056 C304.314,863.468 304.062,863.09 303.81,863.048 C303.516,863.006 303.138,863.258 303.012,863.804 L302.886,864.266 C302.844,864.434 302.802,864.56 302.802,864.686 C302.634,865.064 302.088,865.988 301.668,866.66 C301.08,867.584 300.282,868.844 299.148,869.39 C298.602,869.642 297.888,869.474 297.384,868.97 C296.88,868.55 296.376,867.71 296.04,867.08 L295.452,865.904 C295.368,865.694 295.242,865.526 295.032,865.4 C294.738,865.358 294.57,865.484 294.318,865.61 C293.94,865.82 293.898,866.03 293.898,866.156 L293.52,866.954 C293.436,866.912 293.226,866.828 293.142,866.828 C292.512,866.786 291.63,866.786 290.916,866.996 C290.202,867.248 289.404,867.752 288.858,868.382 C288.396,869.012 287.892,869.978 287.808,870.818 C287.808,871.322 287.808,871.91 288.102,872.372 C288.438,872.876 288.942,873.17 289.572,873.128 C290.118,873.128 290.706,872.708 291.042,872.414 C291.336,872.12 291.714,871.7 291.966,871.322 C292.512,870.566 292.932,869.81 293.394,868.97 L293.394,869.012 L293.688,868.466 C293.757176,868.307882 293.84263,868.124187 293.93287,867.935704 L294.070386,867.651988 C294.323813,867.134789 294.57,866.66 294.57,866.66 L294.738,866.408 L294.738,866.282 L295.326,867.374 C295.746,868.214 296.25,869.012 296.88,869.516 C297.216,869.768 297.636,870.062 298.098,870.146 C298.56,870.23 299.022,870.188 299.358,870.02 C300.786,869.306 301.458,868.256 301.962,867.458 L302.214,866.996 L302.214,867.038 C302.298,866.912 302.466,866.702 302.55,866.534 C302.55,866.618 302.508,866.702 302.466,866.744 C302.382,867.08 302.34,867.836 302.298,868.214 C302.214,868.97 302.13,869.978 302.13,870.734 L302.13,870.944 C302.172,871.826 302.214,872.792 302.718,873.674 C302.886,873.884 303.096,874.178 303.516,874.346 C303.81,874.472 304.272,874.514 304.482,874.388 Z M288.942,871.868 C288.816,871.574 288.774,871.196 288.774,870.86 C288.858,870.272 289.11,869.558 289.572,869.054 C289.908,868.676 290.748,868.214 291.21,867.962 C291.756,867.836 292.512,867.752 292.974,867.836 L292.554,868.592 L292.134,869.432 C291.882,869.894 291.63,870.314 291.252,870.776 C290.748,871.406 290.16,872.162 289.572,872.162 C289.278,872.204 289.026,872.078 288.942,871.868 Z M333.132,887.954 C333.132,887.912 333.09,887.87 333.09,887.828 L333.804,886.988 C334.083051,884.964881 334.564887,877.814203 334.960796,870.32375 L335.008826,869.405179 C335.072241,868.179022 335.133051,866.949017 335.19,865.736 C336.576,865.274 338.634,864.644 340.272,864.182 C343.086,863.468 346.782,862.796 349.26,862.502 C349.974,862.418 350.688,862.376 351.36,862.334 L351.486,865.568 C351.402,867.206 351.402,869.138 351.36,870.818 C351.36,871.112 351.318,871.658 351.318,871.91 L351.192,874.472 C351.15,875.606 351.066,876.782 350.982,877.874 C350.772,881.528 350.478,884.384 350.352,885.602 C350.312471,886.550706 350.719391,886.643716 350.767401,886.651376 C350.772,886.652 351.234,886.652 351.318,885.644 L351.486,883.754 L351.612,882.2 L351.99,877.916 L352.368,871.952 C352.368,871.1792 352.39488,870.35264 352.427136,869.493824 L352.578,865.568 C352.610308,865.051077 352.617763,863.788592 352.619484,862.927563 L352.619981,862.468297 C352.62,862.40284 352.62,862.343692 352.62,862.292 L355.014,862.292 C355.896,862.292 355.896,861.914 355.896,861.914 C355.896,861.914 355.896,861.536 355.056,861.494 L352.62,861.494 C352.62,861.284 352.662,861.158 352.662,860.99 L352.662,859.394 L352.578,854.144 C352.536,851.414 352.452,849.482 352.41,849.062 C352.28904,848.09432 351.161693,848.133027 351.108857,849.029486 L351.108,849.146 C351.108,849.146 351.234,851.078 351.36,854.144 L351.36,854.9 C351.36,855.194 351.402,855.488 351.402,855.824 C351.402,856.748 351.444,858.302 351.486,859.394 L351.486,861.536 C350.94,861.536 349.848,861.62 349.218,861.704 C346.572,861.956 342.96,862.544 340.062,863.3 C338.382,863.762 336.702,864.266 335.19,864.77 C335.19,864.728 335.232,864.644 335.232,864.602 C335.4,859.814 335.526,855.152 335.526,851.792 C335.526,848.348 335.358,846.248 334.938,845.786 L334.938,845.828 C334.896,845.744 334.56,845.492 334.392,845.492 C334.182,845.492 334.014,845.534 333.846,845.66 L333.594,845.996 C333.468,846.29 333.468,846.374 333.552,846.458 L333.552,846.416 C333.594,846.626 333.762,846.794 333.846,846.878 L333.972,846.878 C334.014,847.088 334.098,847.55 334.098,847.76 C334.182,848.726 334.266,850.154 334.266,851.792 C334.308,852.716 334.308,853.724 334.308,854.816 C334.308,857.672 334.224,861.074 334.098,864.56 L334.098,865.106 C333.342,865.358 332.46,865.61 331.83,865.904 C329.935154,866.609923 328.631911,867.217246 328.35639,867.347999 L328.308115,867.371049 C328.30405,867.373006 328.302,867.374 328.302,867.374 C327.63,867.71 328.05,868.634 328.68,868.34 C328.68,868.34 330.108,867.71 332.166,866.87 L333.552,866.282 L334.056,866.114 C334.030655,866.849 334.003125,867.593676 333.973788,868.342431 L333.937738,869.242537 C333.624351,876.903992 333.138517,884.756931 332.88,886.862 C332.796,887.66 333.006,887.954 333.048,887.996 C333.09,888.038 333.132,887.996 333.132,887.954 Z M357.39,866.576 C357.684,866.576 358.272,866.324 358.272,865.946 C358.272,865.694 358.062,865.358 357.684,865.358 C357.306,865.358 357.054,865.694 357.054,865.946 L357.054,866.114 C357.054,866.45 357.012,866.576 357.39,866.576 Z M357.6,874.514 L357.646782,874.490033 C357.745185,874.435185 357.959333,874.29 357.894,874.094 L357.726,872.918 L357.726,871.028 C357.852,869.726 357.936,868.55 357.936,868.508 C357.936,868.466 357.852,868.466 357.852,868.508 C357.768,868.718 357.096,868.592 357.012,868.382 C357.012,868.34 356.928,868.34 356.928,868.382 L356.928,868.76 L356.802,871.028 L356.928,873.002 L357.138,874.346 C357.222,874.556 357.474,874.556 357.6,874.514 Z M364.092,876.74 C364.344,876.614 364.554,876.488 364.764,876.32 L365.31,875.732 L365.436,875.564 L365.73,875.018 C366.108,874.262 366.402,873.464 366.696,872.666 C367.578,869.978 368.208,867.122 368.754,864.686 L368.88,864.182 C368.838,864.938 368.88,864.35 368.88,864.56 C368.88,864.686 368.922,864.896 368.922,865.484 C368.922,866.492 368.964,867.71 369.048,868.676 C369.09,869.39 369.174,870.272 369.384,870.818 C369.552,871.406 369.972,872.414 370.392,872.792 C370.518,872.918 370.812,873.044 370.938,873.086 L371.61,873.086 L372.66,872.456 C372.912,872.246 373.29,871.91 373.542,871.616 L373.668,871.448 C374.172,870.818 374.508,870.23 374.802,869.726 C374.802,869.684 374.886,869.516 374.928,869.474 C375.138,869.096 375.306,868.76 375.306,868.676 C375.474,868.298 375.306,868.046 375.306,868.046 L375.264,868.046 C375.264,868.046 375.096,867.962 374.76,868.508 L374.382,869.264 L374.172,869.558 L374.172,869.516 C373.878,870.02 373.458,870.608 373.164,870.986 C372.828,871.322 372.45,871.7 372.03,871.994 C371.736,872.288 371.232,872.498 370.938,872.204 C370.56,871.868 370.35,871.238 370.224,870.608 C370.056,870.02 370.014,869.348 369.972,868.634 C369.93,868.004 369.93,867.332 369.93,866.66 C369.93,864.308 370.14,861.83 370.392,859.562 C370.686,856.538 371.064,853.808 371.4,851.624 C371.442,851.162 371.148,850.91 370.854,850.826 C370.518,850.784 370.224,850.994 370.098,851.498 C369.846,853.22 369.552,855.572 369.342,857.966 C368.964,859.772 368.502,862.124 367.956,864.518 L367.83,865.022 C367.284,867.248 366.654,869.978 365.772,872.414 C365.52,873.086 365.268,873.758 364.932,874.43 L364.932,874.388 C364.89,874.43 364.848,874.556 364.848,874.598 C364.512,875.102 364.176,875.606 363.756,875.774 C363.21,876.026 362.664,875.774 362.286,875.144 C362.076,874.808 361.908,874.136 361.782,873.632 L361.698,873.338 C361.446,871.658 361.362,870.02 361.362,868.382 C361.362,867.458 361.404,866.408 361.446,865.442 C361.446,865.148 361.488,864.602 361.488,864.35 C361.782,858.806 362.538,852.632 363.126,848.516 C363.21,847.676 363,847.13 362.664,847.13 C362.286,847.13 361.95,847.55 361.824,848.39 C361.278,852.674 360.564,858.26 360.312,864.308 C360.27,865.442 360.228,866.618 360.228,867.836 C360.228,869.81 360.312,871.658 360.69,873.548 C360.858,874.388 361.068,875.27 361.488,875.9 L361.488,875.858 C361.74,876.278 362.118,876.656 362.622,876.824 C363.168,877.034 363.672,876.908 364.092,876.74 Z" id="JonathanHill"></path>
        </g>
    </g>
</svg>