<?xml version="1.0" encoding="UTF-8"?>
<svg width="97px" height="116px" viewBox="0 0 97 116" version="1.1" xmlns="http://www.w3.org/2000/svg" xmlns:xlink="http://www.w3.org/1999/xlink">
    <title>mongolfiera</title>
    <g id="Page-1" stroke="none" stroke-width="1" fill="none" fill-rule="evenodd">
        <g id="About" transform="translate(-915.000000, -1172.000000)" fill="#6F4D86" fill-rule="nonzero">
            <g id="mongolfiera" transform="translate(915.000000, 1172.000000)">
                <path d="M71.927227,89.998729 L25.072773,89.998729 C23.1100884,90.0478033 21.4032967,88.6707332 21.0490349,86.752305 C20.4732819,83.4150171 18.7112836,80.3937411 16.0833233,78.2376627 C6.00716167,70.0354572 0.115565172,57.8131468 0,44.8722803 C0,20.1255181 21.7584223,0 48.4941853,0 C75.2299484,0 97,20.1255181 97,44.8722803 C96.8844348,57.8131468 90.9928383,70.0354572 80.9166767,78.2376627 C78.2846935,80.3903531 76.5217586,83.4132351 75.9509651,86.752305 C75.5967033,88.6707332 73.8899116,90.0478033 71.927227,89.998729 Z M48.4941853,2.24130339 C23.0027575,2.24130339 2.2560844,21.3617009 2.2560844,44.8722803 C2.37578309,57.1466294 7.96819424,68.7363164 17.5253567,76.5162493 C20.5662198,79.0199514 22.6008005,82.5253662 23.2586021,86.3941585 C23.4299943,87.244585 24.2006642,87.8433397 25.072773,87.803638 L71.927227,87.803638 C72.7764558,87.8359977 73.528665,87.2634057 73.7181393,86.440371 C74.3769964,82.569229 76.4162117,79.0629413 79.463014,76.5624617 C89.0378184,68.7762667 94.6327925,57.1643351 94.7322863,44.8722803 C94.7322863,21.3617009 73.9972425,2.24130339 48.4941853,2.24130339 Z" id="Shape"></path>
                <path d="M39.1744153,91 C38.536572,91 38.0194978,90.4807489 38.0194978,89.8402202 C38.0194978,84.7371892 34.855024,81.1650675 30.8590096,76.6535242 C24.6571028,69.6948455 17,60.9733016 17,42.0920869 C17,32.6282839 18.9980072,24.3822497 22.9247266,17.5859402 C27.3791451,10.00535 34.2771267,4.17895868 42.4774792,1.07067621 C43.051143,0.860202939 43.6888177,1.13464267 43.9326752,1.69695728 C44.1394213,2.2793132 43.8549146,2.9221484 43.2859215,3.1582798 C23.3635952,11.2767382 19.182794,28.7894128 19.182794,42.1268803 C19.182794,60.149858 26.5858149,68.4886746 32.5336399,75.1922017 C36.6797936,79.8313208 40.2600377,83.9137456 40.2600377,89.8750136 C40.2431448,90.4758603 39.7719173,90.9641743 39.1744153,91 Z" id="Path"></path>
                <path d="M57.6275231,91 C56.9846522,91 56.4635024,90.4802958 56.4635024,89.8392878 C56.4635024,83.8735596 60.0836067,79.8228997 64.2624408,75.1454902 C70.2571471,68.4369475 77.7068793,60.0570724 77.7068793,42.0554293 C77.7068793,28.7079828 73.4931246,11.1241728 53.4254085,3.05767254 C53.0329672,2.73636903 52.8946961,2.19848491 53.0837423,1.72856655 C53.2727884,1.25864819 53.7455225,0.965146284 54.2518632,1.00332642 C62.5510177,4.10943078 69.5340714,9.95410215 74.0402143,17.5657666 C77.9978845,24.3671611 80,32.6541844 80,42.0902487 C80,60.9855904 72.2243421,69.6904468 66.0317522,76.6775449 C61.9926005,81.1924638 58.8031839,84.8020776 58.8031839,89.8741073 C58.7841978,90.5060103 58.2615123,91.0065407 57.6275231,91 Z" id="Path"></path>
                <path d="M48.0299983,90 C47.4777449,90 47.0300551,89.4844175 47.0300551,88.8484143 L47.0300551,1.43154188 C46.9288233,0.96636743 47.0885048,0.477636773 47.4308969,0.204701474 C47.7732891,-0.0682338248 48.2267109,-0.0682338248 48.5691031,0.204701474 C48.9114952,0.477636773 49.0711767,0.96636743 48.9699449,1.43154188 L48.9699449,88.952057 C48.9260347,89.5216985 48.5257922,89.9679273 48.0299983,90 Z" id="Path"></path>
                <rect id="Rectangle" x="47" y="89" width="2" height="10"></rect>
                <rect id="Rectangle" x="30" y="89" width="2" height="10"></rect>
                <rect id="Rectangle" x="64" y="89" width="2" height="10"></rect>
                <path d="M60.5555995,116.000001 L35.4669809,116.000001 C29.7285045,116.000001 25,111.611429 25,106.228573 L25,101.29143 C25.0739615,99.4516458 26.5940333,97.9985287 28.4430858,98.0000011 L67.5565407,98.0000011 C69.4055933,97.9985287 70.925665,99.4516458 70.9998143,101.29143 L70.9998143,106.228573 C71.0340574,111.611429 66.3285068,116.000001 60.5555995,116.000001 Z M28.4775167,100.217145 C28.1673007,100.188742 27.8588173,100.287134 27.6229025,100.489726 C27.3869877,100.692317 27.2439118,100.981703 27.2265288,101.29143 L27.2265288,106.228573 C27.2265288,110.388572 30.9221076,113.782857 35.4669809,113.782857 L60.5555995,113.782857 C65.1463806,113.782857 68.8075286,110.354286 68.8075286,106.228573 L68.8075286,101.29143 C68.7901456,100.981703 68.6470697,100.692317 68.4111549,100.489726 C68.17524,100.287134 67.8667567,100.188742 67.5565407,100.217145 L28.4775167,100.217145 Z" id="Shape"></path>
            </g>
        </g>
    </g>
</svg>